# xmcd
#
# Track frame offsets:
#	150
#	19774
#	37292
#	49334
#	62829
#	78471
#	95673
#	109951
#	127735
#	141277
#	157056
#	174027
#	188978
#	205525
#	223109
#	236263
#	253530
#	273238
#	287506
#	304462
#
# Disc length: 4294 seconds
#
# Revision: 1
# Processed by: cddbd v1.5.2PL0 Copyright (c) Steve Scherf et al.
# Submitted via: audiograbber 1.83.01
#
DISCID=2410c414
DTITLE=Los Paraguayos - Fiesta Romantica-mit 20 Hits um die Welt
DYEAR=2014
DGENRE=Folklore
TTITLE0=Tage wie diese
TTITLE1=Wahnsinn
TTITLE2=Sieben Faesser Wein
TTITLE3=Biene Maja
TTITLE4=Liebe ohne Leiden
TTITLE5=Die rote Sonne von Barbados
TTITLE6=Ein Schiff wird kommen
TTITLE7=Santa Maria
TTITLE8=Ueber sieben Bruecken musst du gehn
TTITLE9=Wunder gibt es immer wieder
TTITLE10=Griechischer Wein
TTITLE11=Rot sind die Rosen
TTITLE12=Hello again
TTITLE13=Einmal um die ganze Welt
TTITLE14=Marinero, Marinero (Deutsche Version)
TTITLE15=Sol de Barbados (spanische Version)
TTITLE16=Besame mucho mit Annett Louisan
TTITLE17=Ninos de Pireo (spanische Version)
TTITLE18=Vino griego (spanische Version)
TTITLE19=Santa Maria del mar (spanische Version)
EXTD=
EXTT0=
EXTT1=
EXTT2=
EXTT3=
EXTT4=
EXTT5=
EXTT6=
EXTT7=
EXTT8=
EXTT9=
EXTT10=
EXTT11=
EXTT12=
EXTT13=
EXTT14=
EXTT15=
EXTT16=
EXTT17=
EXTT18=
EXTT19=
PLAYORDER=
